<?xml version="1.0" encoding="utf-8"?>
<!-- Generator: Adobe Illustrator 18.0.0, SVG Export Plug-In . SVG Version: 6.00 Build 0)  -->
<!DOCTYPE svg PUBLIC "-//W3C//DTD SVG 1.1//EN" "http://www.w3.org/Graphics/SVG/1.1/DTD/svg11.dtd">
<svg version="1.1" id="Layer_1" xmlns="http://www.w3.org/2000/svg" xmlns:xlink="http://www.w3.org/1999/xlink" x="0px" y="0px"
	 viewBox="0 0 112 112" enable-background="new 0 0 112 112" xml:space="preserve">
<g>
	<g>
		<rect fill="#FFFFFF" width="112" height="112"/>
		<g>
			<polygon points="17.8,17.8 17.8,46.2 39.7,46.2 46.2,39.7 46.2,24.3 39.7,17.8 			"/>
		</g>
		<g>
			<path d="M0,0v112h112V0H0z M17.8,101.3h-7.1v-7.1h7.1V101.3z M53.3,101.3h-7.1h-4.3L20.1,68.5h-2.3v18.6h-7.1V58.7h7.1h4.3
				l22.1,33.1h2.1V58.7h7.1V101.3z M53.3,42.7L42.7,53.3h-32V10.7h32l10.7,10.7V42.7z M101.3,101.3h-7.1v-2.4L78.8,83.6H65.8v17.8
				h-7.1V83.6v-7.1V58.7h7.1v17.8h12.4L90.7,64l0,0v-5.3h7.1V64v2.9L95.7,69L85,79.7L101.3,96l0,0V101.3z M101.3,48L101.3,48
				L96,53.3l0,0h-5.3v-7.1h2.4l1.2-1.2V17.8h-0.6L85,26.4l-5,5l-5-5l-8.6-8.6h-0.6v24.9h-7.1v-32l0,0h10.7l0,0L80,21.3h0l10.7-10.7
				l0,0h10.7l0,0V48z"/>
		</g>
	</g>
</g>
</svg>
